<?xml version="1.0" encoding="utf-8"?>
<!-- Generator: Adobe Illustrator 16.0.0, SVG Export Plug-In . SVG Version: 6.00 Build 0)  -->
<!DOCTYPE svg PUBLIC "-//W3C//DTD SVG 1.1//EN" "http://www.w3.org/Graphics/SVG/1.1/DTD/svg11.dtd">
<svg version="1.1" id="Layer_1" xmlns="http://www.w3.org/2000/svg" xmlns:xlink="http://www.w3.org/1999/xlink" x="0px" y="0px"
	 width="612px" height="792px" viewBox="0 0 612 792" enable-background="new 0 0 612 792" xml:space="preserve">
<g>
	<path fill-rule="evenodd" clip-rule="evenodd" fill="#231F20" d="M265.685,398.93c0.014-14.026,11.138-25.417,24.869-25.46
		c13.818-0.044,25.409,11.804,25.185,25.747c-0.225,13.944-11.565,25.28-25.229,25.216
		C276.789,424.367,265.671,412.945,265.685,398.93z M290.741,383.268c-8.511-0.047-15.495,6.837-15.674,15.457
		c-0.177,8.486,6.806,15.784,15.222,15.908c8.768,0.129,15.867-6.901,15.857-15.701
		C306.135,390.322,299.247,383.318,290.741,383.268z"/>
	<path fill-rule="evenodd" clip-rule="evenodd" fill="#231F20" d="M499.179,407.948c0,3.592,0.092,7.187-0.025,10.774
		c-0.118,3.498-2.065,5.674-4.802,5.679c-2.722,0.008-4.764-2.184-4.828-5.663c-0.124-6.854,0.067-13.716-0.097-20.568
		c-0.173-7.266-5.695-13.573-12.632-14.778c-7.326-1.272-14.502,2.908-17.143,9.986c-3.561,9.542,2.597,19.908,12.609,21.208
		c0.645,0.085,1.314-0.011,1.953,0.1c3.113,0.541,4.743,2.499,4.498,5.339c-0.224,2.579-2.033,4.192-4.944,4.401
		c-2.156,0.153-4.217-0.392-6.261-0.946c-12.255-3.328-20.243-15.979-18.162-28.72c2.078-12.727,13.709-22.076,26.448-21.258
		c12.566,0.805,22.848,11.62,23.354,24.652c0.127,3.259,0.018,6.529,0.018,9.794C499.171,407.948,499.174,407.948,499.179,407.948z"
		/>
	<path fill-rule="evenodd" clip-rule="evenodd" fill="#231F20" d="M203.615,407.372c0,3.754,0.088,7.511-0.025,11.262
		c-0.11,3.688-1.832,5.73-4.591,5.78c-2.794,0.05-4.542-2.013-4.708-5.621c-0.052-1.14-0.01-2.284-0.011-3.428
		c-0.002-5.061,0.046-10.12-0.02-15.181c-0.067-5.082-1.459-9.71-5.466-13.113c-4.753-4.036-10.238-5.103-15.977-2.644
		c-6.072,2.6-9.382,7.494-9.596,14.128c-0.201,6.197-0.045,12.405-0.059,18.607c-0.003,1.141,0.139,2.334-0.14,3.411
		c-0.582,2.253-2.11,3.713-4.5,3.796c-2.183,0.076-3.678-1.142-4.469-3.159c-0.235-0.599-0.475-1.258-0.459-1.883
		c0.209-8.307-0.833-16.663,0.587-24.917c2.207-12.826,13.367-21.679,26.084-20.911c12.388,0.749,22.454,10.922,23.201,23.593
		c0.202,3.416,0.031,6.853,0.031,10.278C203.537,407.371,203.577,407.372,203.615,407.372z"/>
	<path fill-rule="evenodd" clip-rule="evenodd" fill="#231F20" d="M393.217,399.001c-0.018-12.807,8.787-23.249,21.383-25.316
		c1.12-0.184,2.284-0.267,3.413-0.185c2.789,0.201,4.656,2.05,4.792,4.582c0.137,2.552-1.479,4.64-4.285,5.069
		c-1.926,0.294-3.861,0.319-5.733,1.043c-7.22,2.795-11.218,9.941-9.787,17.659c1.439,7.766,7.714,12.926,15.528,12.774
		c7.5-0.146,13.851-5.907,14.947-13.589c0.114-0.804-0.001-1.643,0.136-2.441c0.477-2.759,2.551-4.613,4.941-4.5
		c2.341,0.11,4.409,2.194,4.604,4.897c0.19,2.636-0.49,5.197-1.269,7.677c-3.692,11.79-15.592,19.445-27.191,17.576
		C402.11,422.219,393.233,411.783,393.217,399.001z"/>
	<path fill-rule="evenodd" clip-rule="evenodd" fill="#231F20" d="M121.229,373.434c17.231,0.355,26.763,13.792,26.334,25.186
		c-0.114,3.016-1.677,4.894-4.151,5.169c-2.426,0.27-4.414-1.349-5.08-4.226c-0.256-1.108-0.345-2.257-0.527-3.383
		c-0.907-5.62-4.091-9.592-9.235-11.737c-5.747-2.396-11.243-1.525-15.94,2.646c-4.976,4.418-6.544,10.024-4.689,16.388
		c1.809,6.2,6.165,9.775,12.438,11.062c0.632,0.128,1.308,0.024,1.952,0.112c3.471,0.476,5.301,2.455,5.012,5.385
		c-0.282,2.856-2.462,4.587-5.985,4.356c-6.992-0.46-12.96-3.29-17.423-8.704c-6.821-8.273-8.37-17.536-3.878-27.378
		C104.471,378.636,112.416,374.015,121.229,373.434z"/>
	<path fill-rule="evenodd" clip-rule="evenodd" fill="#231F20" d="M321.741,407.306c0-3.102-0.072-6.204,0.012-9.302
		c0.368-13.411,11.149-24.272,24.3-24.535c13.299-0.264,24.893,10.522,25.642,23.851c0.202,3.616-1.629,6.262-4.493,6.487
		c-2.783,0.218-4.898-1.986-5.132-5.846c-0.557-9.187-8.825-15.083-15.858-14.74c-8.16,0.397-14.284,6.317-15.013,15.102
		c-0.108,1.298-0.063,2.609-0.066,3.912c-0.005,5.224,0.055,10.446-0.02,15.667c-0.063,4.307-1.879,6.619-4.897,6.514
		c-2.878-0.101-4.429-2.241-4.483-6.342c-0.049-3.588-0.01-7.18-0.01-10.769C321.728,407.306,321.734,407.306,321.741,407.306z"/>
	<path fill-rule="evenodd" clip-rule="evenodd" fill="#231F20" d="M75.368,373.468c3.581,0,7.165-0.082,10.744,0.023
		c3.584,0.104,5.497,1.862,5.524,4.811c0.027,2.911-1.925,4.84-5.454,4.912c-6.184,0.125-12.385,0.291-18.555-0.019
		c-8.74-0.437-16.2,6.87-16.285,14.703c-0.009,0.797-0.155,1.628-0.415,2.382c-0.765,2.217-2.309,3.543-4.721,3.511
		c-2.178-0.028-4.161-1.984-4.497-4.405c-0.343-2.469,0.27-4.855,0.902-7.216c2.91-10.875,12.678-18.5,23.965-18.694
		C69.506,373.425,72.437,373.468,75.368,373.468z"/>
	<path fill-rule="evenodd" clip-rule="evenodd" fill="#231F20" d="M243.562,373.467c3.417,0,6.836-0.068,10.252,0.019
		c3.833,0.097,5.883,1.975,5.755,5.077c-0.12,2.901-2.046,4.605-5.695,4.663c-6.021,0.098-12.043,0.004-18.065,0.036
		c-9.51,0.05-15.443,5.348-16.687,14.862c-0.084,0.644,0.021,1.329-0.152,1.941c-0.64,2.269-2.15,3.706-4.53,3.703
		c-2.357-0.002-3.977-1.296-4.524-3.669c-0.642-2.788-0.027-5.527,0.718-8.167c3.101-10.998,12.704-18.292,24.14-18.458
		C237.703,373.431,240.632,373.467,243.562,373.467z"/>
	<path fill-rule="evenodd" clip-rule="evenodd" fill="#231F20" d="M57.885,424.435c-3.418,0-6.837,0.06-10.254-0.016
		c-3.756-0.084-6.018-2.026-5.955-4.954c0.063-2.926,2.286-4.753,6.144-4.798c6.022-0.071,12.045,0.02,18.067-0.029
		c9.035-0.074,14.905-5.31,16.1-14.276c0.107-0.802,0.17-1.625,0.398-2.396c0.762-2.568,2.704-4.059,4.923-3.86
		c2.462,0.219,4.223,2.134,4.32,5.03c0.361,10.99-8.423,24.438-23.979,25.265c-3.246,0.173-6.509,0.025-9.765,0.025
		C57.885,424.428,57.885,424.432,57.885,424.435z"/>
	<path fill-rule="evenodd" clip-rule="evenodd" fill="#231F20" d="M225.854,414.647c2.766-0.003,5.532,0.027,8.299-0.009
		c8.126-0.104,13.838-4.712,15.624-12.632c0.285-1.26,0.287-2.582,0.544-3.851c0.526-2.583,2.388-4.143,4.718-4.059
		c2.316,0.082,4.077,1.767,4.492,4.347c0.342,2.132-0.084,4.249-0.511,6.291c-2.295,11.004-12.381,19.396-23.686,19.664
		c-6.505,0.152-13.017,0.077-19.526,0.02c-3.957-0.036-6.026-1.733-6.095-4.764c-0.068-3.032,2.049-4.894,5.889-4.989
		C219.018,414.581,222.437,414.648,225.854,414.647z"/>
	<path fill-rule="evenodd" clip-rule="evenodd" fill="#231F20" d="M377.659,398.911c0-6.028-0.001-12.058,0.002-18.087
		c0-0.977-0.069-1.967,0.059-2.93c0.333-2.529,2.164-4.305,4.428-4.413c2.201-0.105,4.281,1.535,4.81,4.026
		c0.268,1.256,0.241,2.587,0.243,3.885c0.016,11.731,0.013,23.464,0.003,35.193c-0.001,1.139,0.049,2.301-0.149,3.411
		c-0.493,2.766-2.604,4.57-4.985,4.415c-2.451-0.16-4.253-2.043-4.364-4.972c-0.139-3.742-0.042-7.494-0.045-11.241
		C377.658,405.104,377.659,402.007,377.659,398.911z"/>
	<path fill-rule="evenodd" clip-rule="evenodd" fill="#EE2626" d="M122.369,403.842c-2.271-0.005-4.554,0.139-6.812-0.04
		c-2.862-0.226-4.512-2.042-4.596-4.68c-0.091-2.858,1.63-4.9,4.738-5.016c4.698-0.177,9.412-0.167,14.112-0.002
		c2.624,0.092,4.663,2.337,4.761,4.676c0.105,2.516-2.026,4.837-4.904,5.032C127.245,403.977,124.803,403.846,122.369,403.842z"/>
	<path fill-rule="evenodd" clip-rule="evenodd" fill="#EE2626" d="M66.755,403.847c-2.271,0-4.547,0.111-6.811-0.025
		c-3.138-0.187-4.972-2.042-5.003-4.813c-0.031-2.789,1.778-4.802,4.886-4.911c4.536-0.161,9.084-0.147,13.621-0.007
		c3.009,0.093,5.06,2.201,5.095,4.802c0.035,2.61-1.991,4.726-4.979,4.924C71.304,403.965,69.025,403.845,66.755,403.847z"/>
	<path fill-rule="evenodd" clip-rule="evenodd" fill="#EE2626" d="M234.625,403.852c-2.272,0-4.551,0.122-6.812-0.03
		c-3.086-0.208-4.916-2.148-4.899-4.9c0.015-2.75,1.849-4.725,4.959-4.831c4.537-0.154,9.086-0.156,13.622,0.001
		c3.047,0.105,4.951,2.189,4.933,4.89c-0.016,2.7-1.923,4.651-4.993,4.842C239.172,403.966,236.895,403.852,234.625,403.852z"/>
	<path fill-rule="evenodd" clip-rule="evenodd" fill="none" d="M290.741,383.268c8.506,0.05,15.394,7.054,15.405,15.664
		c0.01,8.8-7.089,15.83-15.857,15.701c-8.416-0.124-15.399-7.422-15.222-15.908C275.246,390.105,282.229,383.221,290.741,383.268z"
		/>
</g>
</svg>
